<svg width="775" height="763" viewBox="0 0 775 763" fill="none" xmlns="http://www.w3.org/2000/svg">
<path d="M387.5 20C590.465 20 755 181.849 755 381.501C755 581.148 590.465 743 387.5 743C184.535 743 20 581.148 20 381.501C20 181.849 184.535 20 387.5 20Z" stroke="#006400" stroke-width="40" stroke-linecap="round"/>
<path d="M191.552 441.086H279.279C283.842 441.086 287.882 438.186 289.272 433.908L368.671 189.737C372.05 179.344 387.379 180.547 389.037 191.335L447.758 572.563C449.385 583.111 464.221 584.597 467.978 574.591L562.546 322.542C566.004 313.331 579.345 313.62 582.383 322.971L618.456 433.908C619.846 438.186 623.886 441.086 628.45 441.086H716.178" stroke="#006400" stroke-width="60" stroke-linecap="round"/>
</svg>
